<svg width="1351" height="631" viewBox="0 0 1351 631" fill="none" xmlns="http://www.w3.org/2000/svg">
<rect x="0.5" y="315.5" width="45" height="45" stroke="#050926"/>
<rect x="0.5" y="135.5" width="45" height="45" stroke="#050926"/>
<rect x="0.5" y="495.5" width="45" height="45" stroke="#050926"/>
<rect x="0.5" y="45.5" width="45" height="45" stroke="#050926"/>
<rect x="0.5" y="405.5" width="45" height="45" stroke="#050926"/>
<rect x="0.5" y="225.5" width="45" height="45" stroke="#050926"/>
<rect x="0.5" y="585.5" width="45" height="45" stroke="#050926"/>
<rect x="135.5" y="0.5" width="45" height="45" stroke="#050926"/>
<rect x="135.5" y="360.5" width="45" height="45" stroke="#050926"/>
<rect x="135.5" y="180.5" width="45" height="45" stroke="#050926"/>
<rect x="135.5" y="540.5" width="45" height="45" stroke="#050926"/>
<rect x="135.5" y="90.5" width="45" height="45" stroke="#050926"/>
<rect x="135.5" y="450.5" width="45" height="45" stroke="#050926"/>
<rect x="135.5" y="270.5" width="45" height="45" stroke="#050926"/>
<rect x="495.5" y="0.5" width="45" height="45" stroke="#050926"/>
<rect x="495.5" y="360.5" width="45" height="45" stroke="#050926"/>
<rect x="495.5" y="180.5" width="45" height="45" stroke="#050926"/>
<rect x="495.5" y="540.5" width="45" height="45" stroke="#050926"/>
<rect x="495.5" y="90.5" width="45" height="45" stroke="#050926"/>
<rect x="495.5" y="450.5" width="45" height="45" stroke="#050926"/>
<rect x="495.5" y="270.5" width="45" height="45" stroke="#050926"/>
<rect x="315.5" y="0.5" width="45" height="45" stroke="#050926"/>
<rect x="315.5" y="360.5" width="45" height="45" stroke="#050926"/>
<rect x="315.5" y="180.5" width="45" height="45" stroke="#050926"/>
<rect x="315.5" y="540.5" width="45" height="45" stroke="#050926"/>
<rect x="315.5" y="90.5" width="45" height="45" stroke="#050926"/>
<rect x="315.5" y="450.5" width="45" height="45" stroke="#050926"/>
<rect x="315.5" y="270.5" width="45" height="45" stroke="#050926"/>
<rect x="45.5" y="0.5" width="45" height="45" stroke="#050926"/>
<rect x="45.5" y="360.5" width="45" height="45" stroke="#050926"/>
<rect x="45.5" y="180.5" width="45" height="45" stroke="#050926"/>
<rect x="45.5" y="540.5" width="45" height="45" stroke="#050926"/>
<rect x="45.5" y="90.5" width="45" height="45" stroke="#050926"/>
<rect x="45.5" y="450.5" width="45" height="45" stroke="#050926"/>
<rect x="45.5" y="270.5" width="45" height="45" stroke="#050926"/>
<rect x="225.5" y="0.5" width="45" height="45" stroke="#050926"/>
<rect x="225.5" y="360.5" width="45" height="45" stroke="#050926"/>
<rect x="225.5" y="180.5" width="45" height="45" stroke="#050926"/>
<rect x="225.5" y="540.5" width="45" height="45" stroke="#050926"/>
<rect x="225.5" y="90.5" width="45" height="45" stroke="#050926"/>
<rect x="225.5" y="450.5" width="45" height="45" stroke="#050926"/>
<rect x="225.5" y="270.5" width="45" height="45" stroke="#050926"/>
<rect x="585.5" y="0.5" width="45" height="45" stroke="#050926"/>
<rect x="585.5" y="360.5" width="45" height="45" stroke="#050926"/>
<rect x="585.5" y="180.5" width="45" height="45" stroke="#050926"/>
<rect x="585.5" y="540.5" width="45" height="45" stroke="#050926"/>
<rect x="585.5" y="90.5" width="45" height="45" stroke="#050926"/>
<rect x="585.5" y="450.5" width="45" height="45" stroke="#050926"/>
<rect x="585.5" y="270.5" width="45" height="45" stroke="#050926"/>
<rect x="405.5" y="0.5" width="45" height="45" stroke="#050926"/>
<rect x="405.5" y="360.5" width="45" height="45" stroke="#050926"/>
<rect x="405.5" y="180.5" width="45" height="45" stroke="#050926"/>
<rect x="405.5" y="540.5" width="45" height="45" stroke="#050926"/>
<rect x="405.5" y="90.5" width="45" height="45" stroke="#050926"/>
<rect x="405.5" y="450.5" width="45" height="45" stroke="#050926"/>
<rect x="405.5" y="270.5" width="45" height="45" stroke="#050926"/>
<rect x="360.5" y="315.5" width="45" height="45" stroke="#050926"/>
<rect x="360.5" y="135.5" width="45" height="45" stroke="#050926"/>
<rect x="360.5" y="495.5" width="45" height="45" stroke="#050926"/>
<rect x="360.5" y="45.5" width="45" height="45" stroke="#050926"/>
<rect x="360.5" y="405.5" width="45" height="45" stroke="#050926"/>
<rect x="360.5" y="225.5" width="45" height="45" stroke="#050926"/>
<rect x="360.5" y="585.5" width="45" height="45" stroke="#050926"/>
<rect x="180.5" y="315.5" width="45" height="45" stroke="#050926"/>
<rect x="180.5" y="135.5" width="45" height="45" stroke="#050926"/>
<rect x="180.5" y="495.5" width="45" height="45" stroke="#050926"/>
<rect x="180.5" y="45.5" width="45" height="45" stroke="#050926"/>
<rect x="180.5" y="405.5" width="45" height="45" stroke="#050926"/>
<rect x="180.5" y="225.5" width="45" height="45" stroke="#050926"/>
<rect x="180.5" y="585.5" width="45" height="45" stroke="#050926"/>
<rect x="540.5" y="315.5" width="45" height="45" stroke="#050926"/>
<rect x="540.5" y="135.5" width="45" height="45" stroke="#050926"/>
<rect x="540.5" y="495.5" width="45" height="45" stroke="#050926"/>
<rect x="540.5" y="45.5" width="45" height="45" stroke="#050926"/>
<rect x="540.5" y="405.5" width="45" height="45" stroke="#050926"/>
<rect x="540.5" y="225.5" width="45" height="45" stroke="#050926"/>
<rect x="540.5" y="585.5" width="45" height="45" stroke="#050926"/>
<rect x="90.5" y="315.5" width="45" height="45" stroke="#050926"/>
<rect x="90.5" y="135.5" width="45" height="45" stroke="#050926"/>
<rect x="90.5" y="495.5" width="45" height="45" stroke="#050926"/>
<rect x="90.5" y="45.5" width="45" height="45" stroke="#050926"/>
<rect x="90.5" y="405.5" width="45" height="45" stroke="#050926"/>
<rect x="90.5" y="225.5" width="45" height="45" stroke="#050926"/>
<rect x="90.5" y="585.5" width="45" height="45" stroke="#050926"/>
<rect x="450.5" y="315.5" width="45" height="45" stroke="#050926"/>
<rect x="450.5" y="135.5" width="45" height="45" stroke="#050926"/>
<rect x="450.5" y="495.5" width="45" height="45" stroke="#050926"/>
<rect x="450.5" y="45.5" width="45" height="45" stroke="#050926"/>
<rect x="450.5" y="405.5" width="45" height="45" stroke="#050926"/>
<rect x="450.5" y="225.5" width="45" height="45" stroke="#050926"/>
<rect x="450.5" y="585.5" width="45" height="45" stroke="#050926"/>
<rect x="270.5" y="315.5" width="45" height="45" stroke="#050926"/>
<rect x="270.5" y="135.5" width="45" height="45" stroke="#050926"/>
<rect x="270.5" y="495.5" width="45" height="45" stroke="#050926"/>
<rect x="270.5" y="45.5" width="45" height="45" stroke="#050926"/>
<rect x="270.5" y="405.5" width="45" height="45" stroke="#050926"/>
<rect x="270.5" y="225.5" width="45" height="45" stroke="#050926"/>
<rect x="270.5" y="585.5" width="45" height="45" stroke="#050926"/>
<rect x="630.5" y="315.5" width="45" height="45" stroke="#050926"/>
<rect x="630.5" y="135.5" width="45" height="45" stroke="#050926"/>
<rect x="630.5" y="495.5" width="45" height="45" stroke="#050926"/>
<rect x="630.5" y="45.5" width="45" height="45" stroke="#050926"/>
<rect x="630.5" y="405.5" width="45" height="45" stroke="#050926"/>
<rect x="630.5" y="225.5" width="45" height="45" stroke="#050926"/>
<rect x="630.5" y="585.5" width="45" height="45" stroke="#050926"/>
<rect x="765.5" y="0.5" width="45" height="45" stroke="#050926"/>
<rect x="765.5" y="360.5" width="45" height="45" stroke="#050926"/>
<rect x="765.5" y="180.5" width="45" height="45" stroke="#050926"/>
<rect x="765.5" y="540.5" width="45" height="45" stroke="#050926"/>
<rect x="765.5" y="90.5" width="45" height="45" stroke="#050926"/>
<rect x="765.5" y="450.5" width="45" height="45" stroke="#050926"/>
<rect x="765.5" y="270.5" width="45" height="45" stroke="#050926"/>
<rect x="1125.5" y="0.5" width="45" height="45" stroke="#050926"/>
<rect x="1125.5" y="360.5" width="45" height="45" stroke="#050926"/>
<rect x="1125.5" y="180.5" width="45" height="45" stroke="#050926"/>
<rect x="1125.5" y="540.5" width="45" height="45" stroke="#050926"/>
<rect x="1125.5" y="90.5" width="45" height="45" stroke="#050926"/>
<rect x="1125.5" y="450.5" width="45" height="45" stroke="#050926"/>
<rect x="1125.5" y="270.5" width="45" height="45" stroke="#050926"/>
<rect x="945.5" y="0.5" width="45" height="45" stroke="#050926"/>
<rect x="945.5" y="360.5" width="45" height="45" stroke="#050926"/>
<rect x="945.5" y="180.5" width="45" height="45" stroke="#050926"/>
<rect x="945.5" y="540.5" width="45" height="45" stroke="#050926"/>
<rect x="945.5" y="90.5" width="45" height="45" stroke="#050926"/>
<rect x="945.5" y="450.5" width="45" height="45" stroke="#050926"/>
<rect x="945.5" y="270.5" width="45" height="45" stroke="#050926"/>
<rect x="675.5" y="0.5" width="45" height="45" stroke="#050926"/>
<rect x="675.5" y="360.5" width="45" height="45" stroke="#050926"/>
<rect x="675.5" y="180.5" width="45" height="45" stroke="#050926"/>
<rect x="675.5" y="540.5" width="45" height="45" stroke="#050926"/>
<rect x="675.5" y="90.5" width="45" height="45" stroke="#050926"/>
<rect x="675.5" y="450.5" width="45" height="45" stroke="#050926"/>
<rect x="675.5" y="270.5" width="45" height="45" stroke="#050926"/>
<rect x="855.5" y="0.5" width="45" height="45" stroke="#050926"/>
<rect x="855.5" y="360.5" width="45" height="45" stroke="#050926"/>
<rect x="855.5" y="180.5" width="45" height="45" stroke="#050926"/>
<rect x="855.5" y="540.5" width="45" height="45" stroke="#050926"/>
<rect x="855.5" y="90.5" width="45" height="45" stroke="#050926"/>
<rect x="855.5" y="450.5" width="45" height="45" stroke="#050926"/>
<rect x="855.5" y="270.5" width="45" height="45" stroke="#050926"/>
<rect x="1215.5" y="0.5" width="45" height="45" stroke="#050926"/>
<rect x="1305.5" y="0.5" width="45" height="45" stroke="#050926"/>
<rect x="1215.5" y="360.5" width="45" height="45" stroke="#050926"/>
<rect x="1305.5" y="360.5" width="45" height="45" stroke="#050926"/>
<rect x="1215.5" y="180.5" width="45" height="45" stroke="#050926"/>
<rect x="1305.5" y="180.5" width="45" height="45" stroke="#050926"/>
<rect x="1215.5" y="540.5" width="45" height="45" stroke="#050926"/>
<rect x="1305.5" y="540.5" width="45" height="45" stroke="#050926"/>
<rect x="1215.5" y="90.5" width="45" height="45" stroke="#050926"/>
<rect x="1305.5" y="90.5" width="45" height="45" stroke="#050926"/>
<rect x="1215.5" y="450.5" width="45" height="45" stroke="#050926"/>
<rect x="1305.5" y="450.5" width="45" height="45" stroke="#050926"/>
<rect x="1215.5" y="270.5" width="45" height="45" stroke="#050926"/>
<rect x="1305.5" y="270.5" width="45" height="45" stroke="#050926"/>
<rect x="1035.5" y="0.5" width="45" height="45" stroke="#050926"/>
<rect x="1035.5" y="360.5" width="45" height="45" stroke="#050926"/>
<rect x="1035.5" y="180.5" width="45" height="45" stroke="#050926"/>
<rect x="1035.5" y="540.5" width="45" height="45" stroke="#050926"/>
<rect x="1035.5" y="90.5" width="45" height="45" stroke="#050926"/>
<rect x="1035.5" y="450.5" width="45" height="45" stroke="#050926"/>
<rect x="1035.5" y="270.5" width="45" height="45" stroke="#050926"/>
<rect x="990.5" y="315.5" width="45" height="45" stroke="#050926"/>
<rect x="990.5" y="135.5" width="45" height="45" stroke="#050926"/>
<rect x="990.5" y="495.5" width="45" height="45" stroke="#050926"/>
<rect x="990.5" y="45.5" width="45" height="45" stroke="#050926"/>
<rect x="990.5" y="405.5" width="45" height="45" stroke="#050926"/>
<rect x="990.5" y="225.5" width="45" height="45" stroke="#050926"/>
<rect x="990.5" y="585.5" width="45" height="45" stroke="#050926"/>
<rect x="810.5" y="315.5" width="45" height="45" stroke="#050926"/>
<rect x="810.5" y="135.5" width="45" height="45" stroke="#050926"/>
<rect x="810.5" y="495.5" width="45" height="45" stroke="#050926"/>
<rect x="810.5" y="45.5" width="45" height="45" stroke="#050926"/>
<rect x="810.5" y="405.5" width="45" height="45" stroke="#050926"/>
<rect x="810.5" y="225.5" width="45" height="45" stroke="#050926"/>
<rect x="810.5" y="585.5" width="45" height="45" stroke="#050926"/>
<rect x="1170.5" y="315.5" width="45" height="45" stroke="#050926"/>
<rect x="1260.5" y="315.5" width="45" height="45" stroke="#050926"/>
<rect x="1170.5" y="135.5" width="45" height="45" stroke="#050926"/>
<rect x="1260.5" y="135.5" width="45" height="45" stroke="#050926"/>
<rect x="1170.5" y="495.5" width="45" height="45" stroke="#050926"/>
<rect x="1260.5" y="495.5" width="45" height="45" stroke="#050926"/>
<rect x="1170.5" y="45.5" width="45" height="45" stroke="#050926"/>
<rect x="1260.5" y="45.5" width="45" height="45" stroke="#050926"/>
<rect x="1170.5" y="405.5" width="45" height="45" stroke="#050926"/>
<rect x="1260.5" y="405.5" width="45" height="45" stroke="#050926"/>
<rect x="1170.5" y="225.5" width="45" height="45" stroke="#050926"/>
<rect x="1260.5" y="225.5" width="45" height="45" stroke="#050926"/>
<rect x="1170.5" y="585.5" width="45" height="45" stroke="#050926"/>
<rect x="1260.5" y="585.5" width="45" height="45" stroke="#050926"/>
<rect x="720.5" y="315.5" width="45" height="45" stroke="#050926"/>
<rect x="720.5" y="135.5" width="45" height="45" stroke="#050926"/>
<rect x="720.5" y="495.5" width="45" height="45" stroke="#050926"/>
<rect x="720.5" y="45.5" width="45" height="45" stroke="#050926"/>
<rect x="720.5" y="405.5" width="45" height="45" stroke="#050926"/>
<rect x="720.5" y="225.5" width="45" height="45" stroke="#050926"/>
<rect x="720.5" y="585.5" width="45" height="45" stroke="#050926"/>
<rect x="1080.5" y="315.5" width="45" height="45" stroke="#050926"/>
<rect x="1080.5" y="135.5" width="45" height="45" stroke="#050926"/>
<rect x="1080.5" y="495.5" width="45" height="45" stroke="#050926"/>
<rect x="1080.5" y="45.5" width="45" height="45" stroke="#050926"/>
<rect x="1080.5" y="405.5" width="45" height="45" stroke="#050926"/>
<rect x="1080.5" y="225.5" width="45" height="45" stroke="#050926"/>
<rect x="1080.5" y="585.5" width="45" height="45" stroke="#050926"/>
<rect x="900.5" y="315.5" width="45" height="45" stroke="#050926"/>
<rect x="900.5" y="135.5" width="45" height="45" stroke="#050926"/>
<rect x="900.5" y="495.5" width="45" height="45" stroke="#050926"/>
<rect x="900.5" y="45.5" width="45" height="45" stroke="#050926"/>
<rect x="900.5" y="405.5" width="45" height="45" stroke="#050926"/>
<rect x="900.5" y="225.5" width="45" height="45" stroke="#050926"/>
<rect x="900.5" y="585.5" width="45" height="45" stroke="#050926"/>
</svg>
